<svg id="Layer_1" data-name="Layer 1" xmlns="http://www.w3.org/2000/svg" viewBox="0 0 178.49 268.08"><defs><style>.cls-1{fill:#1d1d1b;}.cls-2{fill:#65c2c6;}.cls-3{fill:#f0e51a;}.cls-4{fill:#fff;}</style></defs><path class="cls-1" d="M387.67,381.87c-.33-.86-.78-1.67-1.1-2.52A121.4,121.4,0,0,0,356.27,333c-7.94-7.57-8.64-13.67-3.33-23.32,5.77-10.5,10.14-21.56,11.16-33.6.82-9.58-1.38-12-10.06-15.68a61.1,61.1,0,0,1-13.9-8.42c-3.77-3-6.7-7.06-10.09-10.75,7.18-8.17,8.31-11.55,5.1-16.18a9.85,9.85,0,0,0-11.37-3.58c-4.08,1.5-5.3,4.24-4.24,10.59a44.73,44.73,0,0,1,3.84-5.36c2.56-2.64,5.61-2.46,7.92.25,2.13,2.49,2.42,5.67-.36,7.16-5.72,3.08-7.76,9.27-11.75,13.66-5.37,5.93-10.87,10.33-18.16,13s-8.57,4.33-8.36,12.07a31.33,31.33,0,0,0,1.55,9.85c3.15,8.57,6.06,17.34,10.37,25.33,4.72,8.75,4.33,16.85.05,25.17-4.87,9.49-9.62,19.08-15.11,28.21-11,18.29-22,36.76-44.25,46,2.6,4.72,4.41,9.24,7.28,12.94,5.86,7.55,14.18,11.22,23.35,13.38,2.43.57,5.65,1.77,6.67,3.66,7.61,14.13,19.84,18.55,34.68,16.37,7.27-1.06,13.46.07,20.15,2.76,11.39,4.56,22.66,4.53,32.5-4.52a14.69,14.69,0,0,1,6.33-3.4c7.89-1.9,12.86-6.55,14.57-14.78,16.47-2.8,29.25-9.78,33-28.06C403.84,406.33,394.6,400,387.67,381.87ZM346.78,264.93l12.05,3c1.29,17.85-5.19,32.32-15.06,45.59a8.08,8.08,0,0,1-5.48,2.58c-5.66.34-11.35.12-18.88.12C333.85,300.87,342.64,284.39,346.78,264.93Zm.15,62.4c-14.29,4.54-21.11,4.56-35.39.14v-5.66a6.64,6.64,0,0,1,1.93-.72c9.06.16,18.13.52,27.2.5C344.47,321.58,347.33,322,346.93,327.33Zm-48.77-59.67,10.5-3.16c5.21,12.39,10.19,24.25,15.84,37.7l-10.37,12.11C303.34,299.73,296.7,285.4,298.16,267.66ZM277.43,429.41c-10.65-.18-21.06-8.68-25.74-19.67,21.39-11.44,33.27-31.38,44.92-51.44,4.73-8.15,8.91-16.62,13.5-25.25,4,.12,6.46,1.23,6.19,4.79-2.05,26.81-4,53.71-19,77.3C292.7,422.4,287.08,429.58,277.43,429.41ZM329.14,434c-2.12,13.93-5.6,16.84-19.69,16-10.64-.6-18.52-5.49-22.92-15.43.18-.6.17-1.44.55-1.7,16.49-10.93,23.18-27.94,27.45-45.92,2.94-12.39,4.05-25.22,5.89-37.86.65-4.46,1-9,1.6-13.85,4.6.06,5.11,2.27,5.42,4.92,1.09,9.38,2.87,18.71,3.36,28.11,1.11,21.3,2.06,42.65-1.46,63.87C329.24,432.73,329.23,433.35,329.14,434Zm33.12,17.81c-4.66,2.58-9.56,4.24-14.92,2.84s-10.41-3-16.49-4.83c9.93-38.77,6.07-76.31,2.2-114,7.28,5.17,11.17,12.27,14.48,19.7,8.37,18.81,12.87,38.75,16.55,58.88,1.59,8.69,2.49,17.51,4,26.22C369,445.94,366.68,449.31,362.26,451.76Zm11.88-7.47c-5.26-34.54-10.45-69-25.54-100.89,9,10,14.78,21.81,19.24,34.09,5.9,16.27,11.17,32.79,16.17,49.37C387.1,437.12,385.27,439.83,374.14,444.29Zm15.74-16.6c-8.76-30.43-17.62-61.16-35.11-88.83a44,44,0,0,1,3.4,3c11.05,11.72,18.94,25.37,24.53,40.42a80.31,80.31,0,0,0,3.92,9.26c5.11,9.79,13.11,15.88,24,18,1.19.23,2.44.2,3.63.43a17,17,0,0,1,2.52.86C411.83,422.51,403.07,428.14,389.88,427.69Z" transform="translate(-245.28 -220.9)"/><path class="cls-2" d="M416.8,410.82c-5,11.69-13.73,17.32-26.92,16.87-8.76-30.43-17.62-61.16-35.11-88.83a44,44,0,0,1,3.4,3c11.05,11.72,18.94,25.37,24.53,40.42a80.31,80.31,0,0,0,3.92,9.26c5.11,9.79,13.11,15.88,24,18,1.19.23,2.44.2,3.63.43A17,17,0,0,1,416.8,410.82Z" transform="translate(-245.28 -220.9)"/><path class="cls-3" d="M374.14,444.29c-5.26-34.54-10.45-69-25.54-100.89,9,10,14.78,21.81,19.24,34.09,5.9,16.27,11.17,32.79,16.17,49.37C387.1,437.12,385.27,439.83,374.14,444.29Z" transform="translate(-245.28 -220.9)"/><path class="cls-4" d="M362.26,451.76c-4.66,2.58-9.56,4.24-14.92,2.84s-10.41-3-16.49-4.83c9.93-38.77,6.07-76.31,2.2-114,7.28,5.17,11.17,12.27,14.48,19.7,8.37,18.81,12.87,38.75,16.55,58.88,1.59,8.69,2.49,17.51,4,26.22C369,445.94,366.68,449.31,362.26,451.76Z" transform="translate(-245.28 -220.9)"/><path class="cls-3" d="M329.34,432.13c-.1.6-.11,1.22-.2,1.82-2.12,13.93-5.6,16.84-19.69,16-10.64-.6-18.52-5.49-22.92-15.43.18-.6.17-1.44.55-1.7,16.49-10.93,23.18-27.94,27.45-45.92,2.94-12.39,4.05-25.22,5.89-37.86.65-4.46,1-9,1.6-13.85,4.6.06,5.11,2.27,5.42,4.92,1.09,9.38,2.87,18.71,3.36,28.11C331.91,389.56,332.86,410.91,329.34,432.13Z" transform="translate(-245.28 -220.9)"/><path class="cls-2" d="M316.56,338.1c-2.05,26.81-4,53.71-19,77.3-4.61,7.26-10.23,14.44-19.88,14.27C267,429.49,256.63,421,252,410c21.39-11.44,33.27-31.38,44.92-51.44,4.73-8.15,8.91-16.62,13.5-25.25C314.38,333.43,316.83,334.54,316.56,338.1Z" transform="translate(-245.28 -220.9)"/><path class="cls-4" d="M346.93,327.33c-14.29,4.54-21.11,4.56-35.39.14v-5.66a6.64,6.64,0,0,1,1.93-.72c9.06.16,18.13.52,27.2.5C344.47,321.58,347.33,322,346.93,327.33Z" transform="translate(-245.28 -220.9)"/><path class="cls-3" d="M343.77,313.55a8.08,8.08,0,0,1-5.48,2.58c-5.66.34-11.35.12-18.88.12,14.44-15.38,23.23-31.86,27.37-51.32l12.05,3C360.12,285.81,353.64,300.28,343.77,313.55Z" transform="translate(-245.28 -220.9)"/><path class="cls-2" d="M324.76,302.46l-10.37,12.11c-10.79-14.58-17.43-28.91-16-46.65l10.5-3.16C314.13,277.15,319.11,289,324.76,302.46Z" transform="translate(-245.28 -220.9)"/><path class="cls-1" d="M264.76,441.6l5.24,6.5-1.31,1-4-4.94-4,3.23,3.67,4.57-1.29,1-3.67-4.56-5.47,4.39-1.25-1.55Z" transform="translate(-245.28 -220.9)"/><path class="cls-1" d="M271.88,448.58l1.45,1.41L262,461.74l-1.46-1.4Z" transform="translate(-245.28 -220.9)"/><path class="cls-1" d="M270.22,468.56l.72-1.22-.05,0a4.15,4.15,0,0,1-3.71-.75,3.17,3.17,0,0,1-.76-4.61c1.64-2.13,4.43-1.85,7.83.78l.14-.18A2.29,2.29,0,0,0,274,459a5.65,5.65,0,0,0-2.81-1.11l.45-1.34a7,7,0,0,1,3.5,1.44c2.71,2.07,2,4.42.6,6.19l-2.53,3.31a14.79,14.79,0,0,0-1.48,2.23Zm3.22-4.7c-1.73-1.37-4-2.59-5.27-.87a1.79,1.79,0,0,0,.34,2.69,2.78,2.78,0,0,0,3.27.16,2.25,2.25,0,0,0,.48-.44Z" transform="translate(-245.28 -220.9)"/><path class="cls-1" d="M276.09,470.06a5.26,5.26,0,0,0,1.9,2c1.27.75,2.23.46,2.7-.33s.26-1.58-.75-2.81c-1.37-1.63-1.62-3.06-.95-4.21.91-1.55,2.9-2.09,5-.88a5.58,5.58,0,0,1,2,2l-1.18,1a4.35,4.35,0,0,0-1.64-1.71,1.61,1.61,0,0,0-2.37.37c-.47.79-.1,1.48.87,2.69,1.29,1.61,1.66,2.95.82,4.38-1,1.68-3,2.11-5.28.77a6.38,6.38,0,0,1-2.31-2.24Z" transform="translate(-245.28 -220.9)"/><path class="cls-1" d="M290.76,462.06l1.86.81-2.79,6.36,0,0a3.68,3.68,0,0,1,1.9-.72,4.18,4.18,0,0,1,2.13.3c1.37.6,3.19,2.4,1.65,5.92l-2.66,6.07L291,480l2.56-5.86c.72-1.64.72-3.3-1-4.07a2.91,2.91,0,0,0-3.3.77,2.51,2.51,0,0,0-.51.83l-2.7,6.15-1.85-.81Z" transform="translate(-245.28 -220.9)"/><path class="cls-1" d="M297,482.34c.26-.72.63-1.78.91-2.73l3.83-12.9,1.92.57-2,6.7h0a4.16,4.16,0,0,1,4.22-.88c2.65.79,3.87,3.55,2.88,6.78-1.13,3.82-4.1,5-6.48,4.29a4,4,0,0,1-3-3.06l-.07,0-.61,1.73Zm3.28-3.68a3.71,3.71,0,0,0-.12.73,3.11,3.11,0,0,0,2.23,3.13c2,.6,3.74-.69,4.46-3.14.64-2.13.08-4.29-2-4.91a3.24,3.24,0,0,0-3.67,1.51,3.64,3.64,0,0,0-.34.76Z" transform="translate(-245.28 -220.9)"/><path class="cls-1" d="M316.78,487.2l.09-1.41h-.07a4.11,4.11,0,0,1-3.64,1,3.17,3.17,0,0,1-2.78-3.75c.49-2.65,3.11-3.67,7.34-2.87l0-.23a2.3,2.3,0,0,0-2-3,5.68,5.68,0,0,0-3,.29l-.21-1.39a6.88,6.88,0,0,1,3.78-.31c3.35.61,3.74,3,3.34,5.24l-.75,4.1a14.93,14.93,0,0,0-.3,2.65Zm.73-5.64c-2.17-.45-4.7-.51-5.09,1.61a1.79,1.79,0,0,0,1.53,2.25,2.77,2.77,0,0,0,3-1.35,2.06,2.06,0,0,0,.23-.61Z" transform="translate(-245.28 -220.9)"/><path class="cls-1" d="M330.44,488.36a7.33,7.33,0,0,1-3.24.35,5.3,5.3,0,0,1-5-6.17,5.65,5.65,0,0,1,6.5-5.33,6.67,6.67,0,0,1,2.74.83l-.6,1.51a4.66,4.66,0,0,0-2.29-.74c-2.54-.24-4.09,1.51-4.3,3.83a3.81,3.81,0,0,0,3.46,4.5,5.7,5.7,0,0,0,2.53-.32Z" transform="translate(-245.28 -220.9)"/><path class="cls-1" d="M335.62,482.88h0c.28-.39.68-.87,1-1.26l3.31-3.8,2.44,0-4.35,4.53,4.83,6.61-2.46,0-3.79-5.37-1,1.14-.05,4.18-2,0,.17-16.33,2,0Z" transform="translate(-245.28 -220.9)"/><path class="cls-1" d="M348.68,473l8.28-1,.21,1.66-6.3.77.62,5.12,5.82-.72.2,1.65-5.82.71.85,7-2,.25Z" transform="translate(-245.28 -220.9)"/><path class="cls-1" d="M367.42,485.68l-.45-1.34-.07,0a4.15,4.15,0,0,1-3,2.32,3.18,3.18,0,0,1-4-2.43c-.55-2.63,1.48-4.56,5.7-5.43l-.05-.22a2.3,2.3,0,0,0-3-2A5.48,5.48,0,0,0,359.9,478l-.73-1.21a6.88,6.88,0,0,1,3.38-1.73c3.33-.7,4.62,1.4,5.08,3.59l.86,4.07a15.61,15.61,0,0,0,.73,2.57ZM366,480.19c-2.17.41-4.54,1.31-4.09,3.42a1.79,1.79,0,0,0,2.26,1.5,2.77,2.77,0,0,0,2.25-2.38,2,2,0,0,0,0-.65Z" transform="translate(-245.28 -220.9)"/><path class="cls-1" d="M372.16,482.36a5.26,5.26,0,0,0,2.79,0c1.41-.43,1.85-1.34,1.58-2.22s-1-1.26-2.58-1.35c-2.12-.09-3.35-.87-3.74-2.15-.53-1.71.43-3.54,2.71-4.25a5.56,5.56,0,0,1,2.82-.14l-.05,1.55a4.32,4.32,0,0,0-2.36.06c-1.15.35-1.58,1.21-1.34,2s1,1.08,2.58,1.18c2.06.13,3.29.77,3.78,2.35.57,1.87-.47,3.63-3,4.41a6.36,6.36,0,0,1-3.22.2Z" transform="translate(-245.28 -220.9)"/><path class="cls-1" d="M376.27,466.15l1.86-.8,2.73,6.39,0,0a3.81,3.81,0,0,1,.77-1.88,4.23,4.23,0,0,1,1.68-1.34c1.37-.59,3.94-.68,5.44,2.85l2.61,6.09-1.86.8L387,472.36c-.7-1.65-1.91-2.79-3.67-2a2.93,2.93,0,0,0-1.7,2.93,2.48,2.48,0,0,0,.26.94l2.63,6.18-1.86.79Z" transform="translate(-245.28 -220.9)"/><path class="cls-1" d="M390.27,461.85a1.19,1.19,0,0,1-.53,1.7,1.2,1.2,0,0,1-1.67-.5,1.24,1.24,0,0,1,.51-1.72A1.19,1.19,0,0,1,390.27,461.85Zm4.85,13.6-5.33-9.78,1.78-1,5.32,9.78Z" transform="translate(-245.28 -220.9)"/><path class="cls-1" d="M405.81,462c2.34,3.39,1,6.49-1.2,8-2.49,1.71-5.65,1.21-7.65-1.69-2.12-3.07-1.35-6.25,1.19-8S403.88,459.17,405.81,462Zm-7.2,5.11c1.38,2,3.58,2.73,5.21,1.61s1.75-3.42.33-5.48c-1.07-1.56-3.21-3-5.18-1.63S397.41,465.34,398.61,467.08Z" transform="translate(-245.28 -220.9)"/><path class="cls-1" d="M406.58,458.13c-.8-.82-1.48-1.48-2.17-2.09l1.28-1.25,1.37,1.23,0,0a4.09,4.09,0,0,1,1.16-4.07c1.1-1.08,3.45-2.1,6.13.63l4.65,4.74-1.45,1.42-4.49-4.58c-1.25-1.28-2.78-1.88-4.14-.55a3,3,0,0,0,.07,4.15l4.69,4.78-1.45,1.41Z" transform="translate(-245.28 -220.9)"/></svg>